<svg xmlns="http://www.w3.org/2000/svg" version="1.1" width="1024" height="576">
<rect x="0" y="0" width="1024" height="576" fill="#717369" />
<g transform="scale(4.000000) translate(0.5 0.5)">
<polygon fill="#ffffff" fill-opacity="0.501961" points="271,-16 206,31 49,0" />
<polygon fill="#051700" fill-opacity="0.501961" points="271,24 271,157 113,29" />
<polygon fill="#ffffff" fill-opacity="0.501961" points="92,20 54,-16 -16,4" />
<polygon fill="#adb5c9" fill-opacity="0.501961" points="137,54 227,119 44,121" />
<polygon fill="#ffffff" fill-opacity="0.501961" points="271,-16 82,1 201,26" />
<polygon fill="#523718" fill-opacity="0.501961" points="-16,69 13,159 133,10" />
<polygon fill="#000200" fill-opacity="0.501961" points="215,159 271,136 245,3" />
<polygon fill="#010000" fill-opacity="0.501961" points="82,57 150,58 116,31" />
<polygon fill="#ffffff" fill-opacity="0.501961" points="5,10 -16,33 22,43" />
<polygon fill="#ffffff" fill-opacity="0.501961" points="227,23 271,-16 101,3" />
<polygon fill="#728648" fill-opacity="0.501961" points="142,52 213,88 219,17" />
<polygon fill="#ffffff" fill-opacity="0.501961" points="46,-8 70,18 -16,0" />
<polygon fill="#b4bec8" fill-opacity="0.501961" points="74,60 145,61 215,112" />
<polygon fill="#858586" fill-opacity="0.501961" points="98,58 35,124 161,131" />
<polygon fill="#e4f6ff" fill-opacity="0.501961" points="36,22 66,31 50,33" />
<polygon fill="#313125" fill-opacity="0.501961" points="133,49 38,19 90,21" />
<polygon fill="#356b0a" fill-opacity="0.501961" points="195,93 251,94 199,50" />
<polygon fill="#856975" fill-opacity="0.501961" points="185,54 227,53 161,14" />
<polygon fill="#ffffff" fill-opacity="0.501961" points="171,30 252,-8 171,-15" />
<polygon fill="#171711" fill-opacity="0.501961" points="245,159 271,7 229,25" />
<polygon fill="#0b1e26" fill-opacity="0.501961" points="90,25 87,-6 94,6" />
<polygon fill="#5a482d" fill-opacity="0.501961" points="4,40 51,138 -6,159" />
<polygon fill="#a78a64" fill-opacity="0.501961" points="34,100 39,119 -2,145" />
<polygon fill="#5b584a" fill-opacity="0.501961" points="48,49 -3,10 42,11" />
<polygon fill="#5e647b" fill-opacity="0.501961" points="205,159 150,114 236,118" />
<polygon fill="#ffffff" fill-opacity="0.501961" points="158,28 180,-13 123,-16" />
<polygon fill="#363029" fill-opacity="0.501961" points="128,19 182,42 72,60" />
<polygon fill="#95b0c7" fill-opacity="0.501961" points="81,23 96,-16 40,-16" />
<polygon fill="#877f74" fill-opacity="0.501961" points="51,89 62,62 141,70" />
<polygon fill="#7d8cc1" fill-opacity="0.501961" points="261,-12 225,14 271,7" />
<polygon fill="#f8ffff" fill-opacity="0.501961" points="16,24 -16,15 8,41" />
<polygon fill="#ffffff" fill-opacity="0.501961" points="-14,2 52,-16 50,11" />
<polygon fill="#112503" fill-opacity="0.501961" points="269,143 188,89 225,92" />
<polygon fill="#ffffff" fill-opacity="0.501961" points="107,-16 185,17 93,6" />
<polygon fill="#2a302a" fill-opacity="0.501961" points="167,16 157,43 181,51" />
<polygon fill="#ffffff" fill-opacity="0.501961" points="37,28 33,22 46,27" />
<polygon fill="#606264" fill-opacity="0.501961" points="155,34 96,25 126,8" />
<polygon fill="#edffff" fill-opacity="0.501961" points="97,-6 94,21 104,-3" />
<polygon fill="#634f53" fill-opacity="0.501961" points="234,22 213,67 160,31" />
<polygon fill="#ffffff" fill-opacity="0.501961" points="231,-16 226,21 92,3" />
<polygon fill="#5e9d32" fill-opacity="0.501961" points="143,50 182,51 210,86" />
<polygon fill="#322a17" fill-opacity="0.501961" points="6,117 -12,53 26,114" />
<polygon fill="#292223" fill-opacity="0.501961" points="271,53 223,72 186,57" />
<polygon fill="#4c4e5b" fill-opacity="0.501961" points="238,130 108,141 180,159" />
<polygon fill="#80868f" fill-opacity="0.501961" points="211,130 104,126 201,102" />
<polygon fill="#010004" fill-opacity="0.501961" points="216,156 271,153 247,122" />
<polygon fill="#dfe2db" fill-opacity="0.501961" points="107,67 85,61 112,61" />
<polygon fill="#3c322b" fill-opacity="0.501961" points="38,141 56,97 16,149" />
<polygon fill="#737275" fill-opacity="0.501961" points="164,32 194,20 195,29" />
<polygon fill="#2f2d2f" fill-opacity="0.501961" points="237,61 248,-1 229,38" />
<polygon fill="#474833" fill-opacity="0.501961" points="21,36 10,14 49,34" />
<polygon fill="#818385" fill-opacity="0.501961" points="105,157 104,66 43,121" />
<polygon fill="#91857d" fill-opacity="0.501961" points="9,53 5,38 49,48" />
<polygon fill="#396015" fill-opacity="0.501961" points="241,85 236,108 158,68" />
<polygon fill="#57554d" fill-opacity="0.501961" points="108,10 105,36 172,32" />
<polygon fill="#3a3a2e" fill-opacity="0.501961" points="126,62 88,57 100,19" />
<polygon fill="#a5b2bf" fill-opacity="0.501961" points="182,85 131,56 146,110" />
<polygon fill="#868e8e" fill-opacity="0.501961" points="112,11 100,20 141,19" />
<polygon fill="#b3c6d2" fill-opacity="0.501961" points="60,-13 46,16 88,15" />
<polygon fill="#1c1b13" fill-opacity="0.501961" points="143,57 140,38 98,51" />
<polygon fill="#7e7263" fill-opacity="0.501961" points="92,35 51,42 60,27" />
<polygon fill="#514e59" fill-opacity="0.501961" points="231,13 233,20 226,23" />
<polygon fill="#383d39" fill-opacity="0.501961" points="100,29 80,15 79,29" />
<polygon fill="#fbffff" fill-opacity="0.501961" points="181,28 180,-6 169,26" />
<polygon fill="#828b96" fill-opacity="0.501961" points="140,23 142,16 164,22" />
<polygon fill="#756d5e" fill-opacity="0.501961" points="210,48 209,20 173,56" />
<polygon fill="#123904" fill-opacity="0.501961" points="62,44 47,46 64,52" />
<polygon fill="#e1ded2" fill-opacity="0.501961" points="135,60 114,65 140,66" />
<polygon fill="#5e6473" fill-opacity="0.501961" points="70,159 31,153 55,103" />
<polygon fill="#6c5948" fill-opacity="0.501961" points="85,28 40,67 102,50" />
<polygon fill="#615239" fill-opacity="0.501961" points="43,121 27,49 -16,58" />
<polygon fill="#a0a9cb" fill-opacity="0.501961" points="246,19 270,-16 254,-16" />
<polygon fill="#292827" fill-opacity="0.501961" points="267,5 228,29 245,60" />
<polygon fill="#959ba0" fill-opacity="0.501961" points="126,73 88,104 220,112" />
<polygon fill="#e4fdff" fill-opacity="0.501961" points="47,29 47,34 56,30" />
<polygon fill="#6d6860" fill-opacity="0.501961" points="49,25 -3,19 25,8" />
<polygon fill="#f8ffff" fill-opacity="0.501961" points="-13,4 49,-16 49,8" />
<polygon fill="#fcffff" fill-opacity="0.501961" points="168,-16 130,-5 137,21" />
<polygon fill="#b3b4bd" fill-opacity="0.501961" points="218,23 225,27 226,21" />
<polygon fill="#3d4028" fill-opacity="0.501961" points="63,26 51,27 37,11" />
<polygon fill="#846c57" fill-opacity="0.501961" points="85,73 40,41 42,58" />
<polygon fill="#5f606a" fill-opacity="0.501961" points="241,128 212,107 219,125" />
<polygon fill="#f4ffff" fill-opacity="0.501961" points="143,-16 86,-4 102,10" />
<polygon fill="#689c4f" fill-opacity="0.501961" points="169,45 157,61 146,48" />
<polygon fill="#1d1a17" fill-opacity="0.501961" points="165,66 147,60 168,74" />
<polygon fill="#497e21" fill-opacity="0.501961" points="198,87 234,81 188,58" />
<polygon fill="#040c03" fill-opacity="0.501961" points="269,113 229,67 269,57" />
<polygon fill="#9cadb8" fill-opacity="0.501961" points="4,17 4,5 11,8" />
<polygon fill="#868986" fill-opacity="0.501961" points="57,128 92,64 136,69" />
<polygon fill="#e8e7e9" fill-opacity="0.501961" points="194,11 204,24 194,27" />
<polygon fill="#4f4d4c" fill-opacity="0.501961" points="72,70 93,71 68,84" />
<polygon fill="#624e47" fill-opacity="0.501961" points="216,19 231,51 208,63" />
<polygon fill="#e2ecf0" fill-opacity="0.501961" points="76,12 78,23 79,17" />
<polygon fill="#2d3d1d" fill-opacity="0.501961" points="46,28 47,37 31,28" />
<polygon fill="#e7eceb" fill-opacity="0.501961" points="2,33 14,22 17,40" />
<polygon fill="#a8bbbc" fill-opacity="0.501961" points="45,26 29,21 27,28" />
<polygon fill="#2b3527" fill-opacity="0.501961" points="168,17 162,44 174,53" />
<polygon fill="#8d7959" fill-opacity="0.501961" points="46,123 7,127 32,109" />
<polygon fill="#b9d4de" fill-opacity="0.501961" points="103,21 101,23 106,24" />
<polygon fill="#939fad" fill-opacity="0.501961" points="50,5 86,-5 98,7" />
</g>
</svg>