<?xml version="1.0" encoding="UTF-8" standalone="no"?>
<!-- Created with Inkscape (http://www.inkscape.org/) -->

<svg
   xmlns:dc="http://purl.org/dc/elements/1.1/"
   xmlns:cc="http://creativecommons.org/ns#"
   xmlns:rdf="http://www.w3.org/1999/02/22-rdf-syntax-ns#"
   xmlns:svg="http://www.w3.org/2000/svg"
   xmlns="http://www.w3.org/2000/svg"
   xmlns:sodipodi="http://sodipodi.sourceforge.net/DTD/sodipodi-0.dtd"
   xmlns:inkscape="http://www.inkscape.org/namespaces/inkscape"
   inkscape:version="0.48.3.1 r9886"
   version="1.1"
   id="svg2"
   height="1052.3622047"
   width="744.09448819"
   sodipodi:docname="绘图.svg">
  <sodipodi:namedview
     id="base"
     pagecolor="#ffffff"
     bordercolor="#666666"
     borderopacity="1.0"
     inkscape:pageopacity="0.0"
     inkscape:pageshadow="2"
     inkscape:zoom="0.69977474"
     inkscape:cx="210.22556"
     inkscape:cy="636.93069"
     inkscape:document-units="px"
     inkscape:current-layer="layer1"
     showgrid="false"
     inkscape:window-width="1543"
     inkscape:window-height="876"
     inkscape:window-x="57"
     inkscape:window-y="24"
     inkscape:window-maximized="1" />
  <defs
     id="defs4" />
  <metadata
     id="metadata7">
    <rdf:RDF>
      <cc:Work
         rdf:about="">
        <dc:format>image/svg+xml</dc:format>
        <dc:type
           rdf:resource="http://purl.org/dc/dcmitype/StillImage" />
        <dc:title></dc:title>
      </cc:Work>
    </rdf:RDF>
  </metadata>
  <g
     id="layer1"
     inkscape:groupmode="layer"
     inkscape:label="Layer 1">
    <path
       transform="matrix(1.772152,0,0,0.77547808,-133.54433,109.06177)"
       d="m 385.71429,571.64789 a 112.85714,257.90543 0 1 1 -225.71428,0 112.85714,257.90543 0 1 1 225.71428,0 z"
       sodipodi:ry="257.90543"
       sodipodi:rx="112.85714"
       sodipodi:cy="571.64789"
       sodipodi:cx="272.85715"
       id="path3759"
       style="fill:#ffb54b;fill-opacity:1"
       sodipodi:type="arc" />
    <path
       transform="matrix(0.88607598,0,0,0.38773896,326.86963,43.161107)"
       d="m 385.71429,571.64789 a 112.85714,257.90543 0 1 1 -225.71428,0 112.85714,257.90543 0 1 1 225.71428,0 z"
       sodipodi:ry="257.90543"
       sodipodi:rx="112.85714"
       sodipodi:cy="571.64789"
       sodipodi:cx="272.85715"
       id="path3759-4"
       style="fill:#ffb54b;fill-opacity:1"
       sodipodi:type="arc" />
  </g>
  <path
     style="fill:none;stroke:#000000;stroke-width:5;stroke-linecap:butt;stroke-linejoin:miter;stroke-opacity:1;fill-opacity:1;stroke-miterlimit:4;stroke-dasharray:none"
     d="m 127.66551,756.58529 c 0,-25 0,-50 0,-75 12.7729,-17.29716 25.5458,-34.59433 38.3187,-51.89149 14.07506,-4.33389 28.06969,-9.47859 42.19449,-13.31103 11.10915,1.52316 22.59198,2.10945 33.47014,4.2117 7.11565,5.70312 15.20794,10.72435 21.71649,16.85136 1.6564,5.49433 3.3128,10.98865 4.9692,16.48298 -1.72494,-5.72168 -3.44989,-11.44337 -5.17483,-17.16505 6.39065,-0.51023 13.16509,0.5866 19.3169,-0.92376 4.26091,-2.06952 8.52182,-4.13903 12.78273,-6.20854 -6.72801,2.71878 -12.8284,8.06561 -20.47495,6.9381 -5.08703,-0.56579 -11.21735,2.08176 -15.04139,-2.37408 -6.2212,-4.67635 -12.4424,-9.35271 -18.6636,-14.02906 7.83758,-3.21251 15.54083,-7.53417 23.4627,-10.05066 6.72812,1.22035 13.45624,2.44071 20.18436,3.66106 -6.96177,-1.26273 -13.92354,-2.52547 -20.88531,-3.7882 3.48241,-4.40631 6.96483,-8.81263 10.44724,-13.21894 -4.04585,4.43325 -7.00936,10.25755 -11.74791,13.80053 -7.40849,3.04915 -14.66476,7.08544 -22.1688,9.51482 -10.9669,-1.26122 -21.93379,-2.52243 -32.90069,-3.78365 7.63993,-8.63789 14.74375,-18.0224 22.71753,-26.19535 8.48898,-3.14441 16.84853,-7.19711 25.4168,-9.78511 4.95584,0.4791 9.91167,0.95821 14.86751,1.43731 -5.1922,-0.50195 -10.38439,-1.00391 -15.57659,-1.50586 5.81421,-5.74925 9.94437,-13.72114 18.15001,-16.31411 3.05288,-1.48757 11.64405,-5.67376 4.03894,-1.96804 -5.62342,2.72617 -11.70912,4.84221 -15.18,10.40935 -3.75106,4.22956 -7.03746,9.12194 -12.96433,10.24786 -6.47135,2.58083 -12.9427,5.16167 -19.41405,7.7425 0.24904,-6.61297 0.49807,-13.22594 0.74711,-19.83891 -0.54867,6.7371 0.065,13.92668 -1.20866,20.38156 -7.49698,8.42679 -14.41429,17.72097 -22.27221,25.60765 -13.60294,4.39119 -27.20589,8.78238 -40.80883,13.17357 -0.96384,-16.09323 -1.92767,-32.18647 -2.89151,-48.2797 3.91812,-7.9111 8.59631,-15.60556 12.04922,-23.64925 0.77225,-7.65546 0.72911,-15.55903 2.00315,-23.06181 2.63721,-4.63466 5.27441,-9.26933 7.91162,-13.90399 -2.75465,4.84105 -5.50929,9.68211 -8.26394,14.52316 -2.65275,-4.84989 -5.30549,-9.69979 -7.95824,-14.54968 2.48763,5.11874 6.08144,9.99761 7.90598,15.26015 -0.95266,7.84977 -0.4327,16.11926 -2.31113,23.70517 -3.77889,7.22542 -7.55777,14.45083 -11.33666,21.67625 -5.54745,-10.13928 -11.09489,-20.27855 -16.64234,-30.41783 1.01685,-8.61912 1.04122,-17.62436 2.67659,-26.00284 3.42257,-4.46414 6.84513,-8.92828 10.26769,-13.39242 -3.56704,4.65259 -7.13409,9.30518 -10.70113,13.95777 -2.8037,-6.11221 -5.60741,-12.22441 -8.41111,-18.33662 2.65212,6.37133 6.29979,12.57069 8.34853,19.04626 -0.72686,8.24261 -1.45371,16.48523 -2.18057,24.72785 -7.87658,-3.55664 -16.55447,-5.88593 -23.92651,-10.21536 -4.59885,-4.49683 -9.1977,-8.99366 -13.79655,-13.49049 4.93842,4.82887 9.87684,9.65773 14.81526,14.4866 -6.8671,1.16552 -14.14813,1.36744 -20.76071,3.12546 -4.194102,3.38967 -8.388204,6.77935 -12.582306,10.16902 4.943092,-3.38368 9.100993,-8.59522 14.548796,-10.80398 6.46913,-0.61541 13.06184,-2.21079 19.4551,-2.22453 7.41986,3.31628 15.70186,5.66218 22.58885,9.57824 5.34601,10.19725 11.49657,20.16296 16.343,30.50399 0.94964,15.85619 1.89928,31.71239 2.84892,47.56858 -12.7729,17.29716 -25.5458,34.59433 -38.3187,51.89149 -7.51325,-12.67333 -15.0265,-25.34666 -22.53975,-38.01999 0.14473,-8.09209 -0.70917,-16.44362 0.0454,-24.37727 2.76202,-4.80856 5.52403,-9.61713 8.28604,-14.42569 -2.88029,5.01448 -5.76057,10.02895 -8.64086,15.04343 -3.15316,-5.64272 -6.306317,-11.28543 -9.459475,-16.92815 3.031253,5.91359 7.005775,11.57493 9.468755,17.64048 0.10004,7.6824 0.20009,15.3648 0.30013,23.0472 -8.603876,-3.58974 -17.926227,-6.27368 -26.085968,-10.42335 -4.368993,-6.81301 -9.501979,-13.3176 -13.405984,-20.31833 -0.962936,-6.88222 -2.86759,-13.83237 -3.255118,-20.67309 1.546303,-4.72686 3.092607,-9.45371 4.638911,-14.18057 -1.620135,4.95255 -3.240271,9.9051 -4.860406,14.85765 -3.995264,-4.2867 -7.990527,-8.5734 -11.985791,-12.8601 3.909339,4.58356 8.806764,8.67613 12.10782,13.56196 1.608677,6.9845 1.741822,14.56467 4.275507,21.17574 4.294836,6.3422 8.589672,12.68441 12.884508,19.02661 -7.780534,0.80339 -15.91849,0.60679 -23.481978,2.01742 -4.353783,3.08568 -8.707566,6.17136 -13.061349,9.25704 4.831337,-3.10829 9.304688,-7.21814 14.353211,-9.71879 7.602019,-0.32315 15.329461,-1.48865 22.85542,-1.30097 8.340405,3.19292 16.680811,6.38585 25.021217,9.57878 7.51325,12.67333 15.0265,25.34666 22.53975,38.01999 0,25 0,50 0,75 z"
     id="path3853"
     inkscape:connector-curvature="0" />
  <path
     id="path4015"
     d="m 570.34145,754.11193 0,-100 30.73011,-56.39318 32.33103,-20.27041 26.75351,3.53844 -26.75351,-3.53844 20.3603,-26.76642 -20.3603,26.76642 -32.33103,20.27041 -0.61518,-41.74028 17.01957,-23.26153 -17.01957,23.26153 -16.99809,-23.16639 16.99809,23.16639 0.61518,41.74028 -30.73011,56.39318 -27.7402,-62.89349 0.12179,-37.86118 -18.54991,-26.84295 18.54991,26.84295 -0.12179,37.86118 -41.76851,-20.86809 -16.20327,-24.51794 16.20327,24.51794 -37.36034,-2.73635 -20.57202,-16.68265 20.57202,16.68265 -24.12052,16.4024 -25.82863,2.69502 25.82863,-2.69502 24.12052,-16.4024 37.36034,2.73635 41.76851,20.86809 27.7402,62.89349 0,100"
     style="fill:none;stroke:#000000;stroke-width:5;stroke-linecap:butt;stroke-linejoin:miter;stroke-opacity:1;stroke-miterlimit:4;stroke-dasharray:none"
     inkscape:connector-curvature="0" />
</svg>
